<svg width="19" height="23" viewBox="0 0 19 23" fill="none" xmlns="http://www.w3.org/2000/svg">
<path d="M16.6558 1.14816C16.2124 1.14816 14.3116 3.84796 14.3116 5.79586C14.3116 7.74376 15.6988 8.32417 16.6558 8.32417C17.6128 8.32417 19 7.74376 19 5.79586C19 3.84796 17.0992 1.14816 16.6558 1.14816Z" fill="url(#paint0_linear_301:2)"/>
<path d="M2.81411 6.8252C2.28628 6.8252 0.0234375 10.017 0.0234375 12.3198C0.0234375 14.6227 1.67485 15.3088 2.81411 15.3088C3.95337 15.3088 5.60478 14.6227 5.60478 12.3198C5.60478 10.017 3.34193 6.8252 2.81411 6.8252Z" fill="url(#paint1_linear_301:2)"/>
<path d="M9.87848 0C8.48503 0 2.51111 8.47137 2.51111 14.5834C2.51111 20.6955 6.87083 22.5167 9.87848 22.5167C12.8861 22.5167 17.2459 20.6955 17.2459 14.5834C17.2459 8.47137 11.2719 0 9.87848 0Z" fill="url(#paint2_linear_301:2)"/>
<defs>
<linearGradient id="paint0_linear_301:2" x1="15.4354" y1="7.2293" x2="19.0087" y2="1.15331" gradientUnits="userSpaceOnUse">
<stop stop-color="#1C5EDD"/>
<stop offset="1" stop-color="#B9D1FF"/>
</linearGradient>
<linearGradient id="paint1_linear_301:2" x1="1.36129" y1="14.0145" x2="5.57136" y2="6.80568" gradientUnits="userSpaceOnUse">
<stop stop-color="#1C5EDD"/>
<stop offset="1" stop-color="#B9D1FF"/>
</linearGradient>
<linearGradient id="paint2_linear_301:2" x1="6.04303" y1="19.0813" x2="17.2464" y2="0.000310169" gradientUnits="userSpaceOnUse">
<stop stop-color="#1C5EDD"/>
<stop offset="1" stop-color="#B9D1FF"/>
</linearGradient>
</defs>
</svg>
